<svg xmlns="http://www.w3.org/2000/svg" width="24" height="24" fill="none" aria-hidden="true"><rect width="24" height="24" fill="#28282C" rx="5"></rect><path fill="#8A8F98" fill-rule="evenodd" d="M13.313 14.188c.241 0 .437.195.437.437v2.625a.44.44 0 0 1-.437.438h-.876A.44.44 0 0 1 12 17.25v-2.625c0-.242.196-.437.438-.437zm-2.188.874v1.313H6.531a.656.656 0 1 1 0-1.312zm6.344 0a.656.656 0 0 1 0 1.313h-2.844v-1.312zM9.812 10.25c.242 0 .438.196.438.438v2.624a.44.44 0 0 1-.437.438h-.876a.44.44 0 0 1-.437-.437v-2.626c0-.241.196-.437.438-.437zm-2.187 1.094v1.312H6.531a.656.656 0 0 1 0-1.312zm9.844 0a.656.656 0 0 1 0 1.312h-6.344v-1.312zM15.062 6.53c.242 0 .438.196.438.438v2.625a.44.44 0 0 1-.437.437h-.876a.44.44 0 0 1-.437-.437V6.969c0-.242.196-.438.438-.438zm-2.187 1.094v1.313H6.531a.656.656 0 1 1 0-1.313zm4.594 0a.656.656 0 0 1 0 1.313h-1.094V7.625z" clip-rule="evenodd"></path></svg>