<svg xmlns="http://www.w3.org/2000/svg" width="1022" height="854" fill="none" class="underToHood_svg__page_underTheHoodAsset__DMfL4"><rect width="597" height="99" x="279.5" y="754.5" stroke="#fff" stroke-opacity="0.08" rx="9.5"></rect><rect width="67" height="67" x="295.5" y="770.5" stroke="#fff" stroke-opacity="0.1" rx="7.5"></rect><path stroke="#fff" stroke-opacity="0.5" stroke-width="0.177" d="M345.959 821.008q-.394.394-.801.765a.604.604 0 0 1-.836-.025l-33.071-33.071a.605.605 0 0 1-.026-.836q.372-.408.766-.801c9.38-9.38 24.588-9.38 33.968 0s9.38 24.588 0 33.968Zm-36.806-29.175 32.012 32.013a.6.6 0 0 1-.112.946q-1.014.59-2.068 1.073a.61.61 0 0 1-.682-.127l-31.043-31.043a.605.605 0 0 1-.126-.681q.483-1.055 1.072-2.068a.6.6 0 0 1 .947-.113Zm-2.742 7.268 27.487 27.487c.342.342.176.915-.291 1.007q-1.382.27-2.781.377a.6.6 0 0 1-.476-.178l-25.145-25.145a.6.6 0 0 1-.178-.476 24 24 0 0 1 .377-2.781c.091-.467.665-.633 1.007-.291Zm.209 10.219 17.059 17.058a.58.58 0 0 1 .12.692.536.536 0 0 1-.627.265 23.9 23.9 0 0 1-11.181-6.327 23.9 23.9 0 0 1-6.327-11.181.535.535 0 0 1 .264-.627.58.58 0 0 1 .692.12Z"></path><mask id="underToHood_svg__a" width="50" height="50" x="304" y="779" maskUnits="userSpaceOnUse" style="mask-type:alpha"><path fill="red" fill-rule="evenodd" d="M344.861 821.448q.399-.364.786-.751c9.207-9.207 9.207-24.135 0-33.342-9.207-9.208-24.135-9.208-33.342 0q-.387.386-.752.786a.164.164 0 0 0 .012.225l.01.009-.377.375-.009-.009a.694.694 0 0 1-.028-.958 24 24 0 0 1 .768-.804c9.415-9.415 24.679-9.415 34.094 0 9.414 9.415 9.414 24.679 0 34.093q-.396.396-.804.769a.695.695 0 0 1-.95-.02l.376-.375a.16.16 0 0 0 .216.002m-4.008 2.713-.009-.009.376-.375.009.008a.69.69 0 0 1-.131 1.086q-1.017.592-2.075 1.076a.69.69 0 0 1-.781-.144l-.034-.034.376-.375.034.033a.16.16 0 0 0 .184.037 23 23 0 0 0 2.029-1.052c.079-.046.107-.166.022-.251m-31.599-32.351-.377.375-.036-.037c-.085-.084-.205-.056-.251.023q-.579.994-1.053 2.029a.16.16 0 0 0 .037.184l.083.083-.376.375-.082-.082a.7.7 0 0 1-.145-.781q.485-1.058 1.077-2.076a.688.688 0 0 1 1.085-.13zm24.308 35.069.024.024c.05.05.06.11.045.162a.13.13 0 0 1-.108.097q-1.356.265-2.73.371a.17.17 0 0 1-.129-.05l-.134-.134-.376.375.134.134c.144.144.343.22.546.204a24 24 0 0 0 2.791-.379c.54-.105.726-.767.336-1.156l-.023-.024zm-27.993-24.492-.05-.049a.17.17 0 0 1-.05-.129q.105-1.374.371-2.73a.13.13 0 0 1 .097-.108.15.15 0 0 1 .114.01l.381-.38c-.393-.336-1.012-.145-1.114.376q-.27 1.386-.378 2.791a.7.7 0 0 0 .203.546l.049.049zm17.798 24.306-.047-.047.377-.375.046.047c.484.484.073 1.27-.592 1.105a24 24 0 0 1-11.222-6.351 24 24 0 0 1-6.35-11.222c-.165-.664.621-1.075 1.105-.591l.086.086-.376.375-.085-.085a.17.17 0 0 0-.098-.055.12.12 0 0 0-.074.013.1.1 0 0 0-.042.041c-.004.01-.014.035-.001.088a23.47 23.47 0 0 0 6.211 10.975 23.46 23.46 0 0 0 10.974 6.21c.054.014.079.004.089-.001a.1.1 0 0 0 .041-.041.13.13 0 0 0 .013-.075.17.17 0 0 0-.055-.097" clip-rule="evenodd"></path></mask><g mask="url(#underToHood_svg__a)"><path stroke="#fff" stroke-opacity="0.5" stroke-width="0.177" d="M329.006 779.918v48.167m1.678-48.108-3.36 48.049m5.033-47.873-6.703 47.698m8.36-47.407-10.015 47.114m11.644-46.707-13.277 46.3m14.874-45.781-16.474 45.262M338.799 782l-19.591 44.003m21.104-43.266L317.7 825.265m24.068-41.688-25.525 40.848m26.917-39.908-28.312 38.967m29.64-37.932-30.961 36.898m32.209-35.772-33.459 34.648m34.625-33.439-35.794 32.23m36.876-30.943-37.955 29.655m38.944-28.295-39.932 26.935m40.822-25.51-41.713 24.083m42.498-22.598-43.291 21.115m43.977-19.58-44.659 18.044m45.235-16.464-45.809 14.884m46.272-13.268-46.736 11.652m47.086-10.008-47.435 8.364m47.669-6.699-47.903 5.035m48.018-3.358-48.137 1.681m44.928-12.883-41.713 24.083m20.856-36.124v48.167m-1.68-48.108 3.36 48.049m-5.034-47.873 6.704 47.698M324 780.444l10.014 47.114m-11.649-46.707 13.277 46.3m-14.874-45.781 16.474 45.262M319.211 782l19.591 44.002m-21.103-43.265 22.613 42.528m-24.068-41.688 25.525 40.848m-26.919-39.908 28.311 38.967m-29.636-37.931 30.961 36.898m-32.211-35.773 33.46 34.648m-34.628-33.439 35.795 32.23m-36.875-30.943 37.956 29.655m-38.946-28.295 39.932 26.934m-40.821-25.509 41.714 24.083m-42.503-22.598 43.292 21.115m-43.977-19.58 44.659 18.044M306.1 796.559l45.809 14.884m-46.274-13.268 46.736 11.652m-47.084-10.008 47.435 8.364m-47.669-6.699 47.903 5.035m-48.018-3.358 48.137 1.681m-44.927-12.883 41.714 24.083m-21.7-36.109 1.681 48.137m.001-48.137-1.681 48.137m3.36-48.02-5.034 47.903m6.7-47.669-8.364 47.435m10.005-47.085-11.652 46.736m13.269-46.273-14.884 45.809m16.462-45.235-18.043 44.66m19.582-43.976-21.114 43.292m22.597-42.503-24.083 41.714m25.507-40.823-26.935 39.932m28.294-38.944-29.654 37.956m30.943-36.875-32.23 35.794m33.439-34.627-34.648 33.46m35.773-32.21-36.898 30.961m37.933-29.637-38.967 28.312m39.907-26.918-40.848 25.524m41.688-24.068-42.529 22.613m43.267-21.103-44.003 19.591m44.634-18.031-45.262 16.474m45.781-14.876-46.301 13.277m46.709-11.646-47.114 10.015m47.404-8.359-47.698 6.703m47.875-5.032-48.049 3.36m44.446-14.442-40.848 25.524m19.586-36.83 1.681 48.137m-3.359-48.02 5.035 47.903m-6.699-47.669 8.364 47.435m-10.01-47.085 11.652 46.736m-13.266-46.273 14.885 45.809m-16.467-45.235 18.044 44.66m-19.577-43.976 21.115 43.292m-22.601-42.503 24.083 41.714m-25.507-40.823 26.935 39.932m-28.294-38.944 29.654 37.956m-30.943-36.875 32.229 35.795m-33.438-34.628 34.648 33.46m-35.775-32.21 36.897 30.961m-37.931-29.637 38.968 28.312m-39.907-26.918 40.848 25.524m-41.69-24.068 42.529 22.613m-43.265-21.103 44.002 19.591m-44.633-18.032 45.262 16.474m-45.781-14.875 46.3 13.277m-46.705-11.646 47.114 10.015m-47.407-8.36 47.698 6.704m-47.874-5.032 48.05 3.36m-48.108-1.679h48.167m-45.349-11.307 42.529 22.613"></path><path fill="#fff" fill-opacity="0.5" d="m311.342 787.761.5.5-.5.501-.5-.5zm33.39 33.594.5.5-.5.501-.5-.5zm-3.544 2.479.5.5-.5.501-.5-.5zm-2.499 1.507.348.617-.617.348-.348-.617zm-4.693 1.208.373.661-.677.382-.373-.661zm-3.238.696.244.719-.735.25-.245-.719zm-7.045-.915.321.688-.553.258-.322-.687z"></path><path fill="#fff" fill-opacity="0.5" d="m324.113 826.912-.438.62-.499-.352.438-.62zm-15.406-35.56.481.52-.52.48-.48-.519z"></path><path fill="#fff" fill-opacity="0.5" d="m308.707 791.352.481.52-.52.48-.48-.519zm-1.594 2.592.629.326-.326.628-.629-.325zm-1.277 4.625.554.44-.44.555-.555-.44zm-.92 3.446.686.174-.174.686-.686-.174zm.805 7.051.699.115-.108.653-.698-.115z"></path><path fill="#fff" fill-opacity="0.5" d="m306.371 808.747.521.48-.48.52-.52-.479z"></path></g><path stroke="#fff" stroke-opacity="0.5" stroke-width="0.177" d="m306.201 809.666.012-.088-.012.088.014.004a.2.2 0 0 1 .033.025l17.059 17.059a.1.1 0 0 1 .024.032l.005.014a.04.04 0 0 1-.004.022l-.001.002a23.4 23.4 0 0 1-10.962-6.192 23.37 23.37 0 0 1-6.187-10.933l-.004-.028.002-.002q.01-.005.021-.003Zm39.385 10.966q-.385.386-.783.749c-.023.021-.067.026-.102-.009l-33.072-33.071c-.034-.035-.029-.08-.008-.102q.363-.399.748-.784c9.173-9.172 24.045-9.172 33.217 0 9.173 9.173 9.173 24.045 0 33.217Zm-36.806-28.423 32.013 32.013c.042.042.025.094-.005.111q-.991.577-2.021 1.049a.08.08 0 0 1-.085-.019l-31.043-31.043c-.027-.028-.03-.062-.019-.085q.471-1.031 1.048-2.022c.018-.029.069-.047.112-.004Zm-2.742 7.268 27.487 27.486c.027.027.029.053.023.076a.04.04 0 0 1-.012.022q-.005.007-.028.012-1.351.264-2.72.369a.08.08 0 0 1-.06-.024l-25.144-25.145a.08.08 0 0 1-.025-.06q.105-1.368.369-2.719.007-.024.013-.028.004-.007.022-.012c.022-.007.049-.004.075.023Z"></path><rect width="67" height="67" x="379.5" y="770.5" stroke="#fff" stroke-opacity="0.05" rx="7.5"></rect><rect width="67" height="67" x="463.5" y="770.5" stroke="#fff" stroke-opacity="0.05" rx="7.5"></rect><rect width="67" height="67" x="547.5" y="770.5" stroke="#fff" stroke-opacity="0.05" rx="7.5"></rect><rect width="67" height="67" x="631.5" y="770.5" stroke="#fff" stroke-opacity="0.05" rx="7.5"></rect><rect width="859" height="719" x="0.5" y="10.5" stroke="#fff" stroke-dasharray="4 4" stroke-opacity="0.08" rx="5.5"></rect><rect width="29" height="29" x="8" y="693" fill="#101113" rx="14.5"></rect><rect width="28" height="28" x="8.5" y="693.5" stroke="#fff" stroke-opacity="0.08" rx="14"></rect><rect width="816" height="708" x="206" y="16" fill="#fff" fill-opacity="0.01" rx="7"></rect><rect width="815" height="707" x="206.5" y="16.5" stroke="#fff" stroke-opacity="0.08" rx="6.5"></rect><g filter="url(#underToHood_svg__b)"><path fill="#0D0E0F" d="M375 36h138v138H375z"></path></g><g filter="url(#underToHood_svg__c)"><path fill="#141414" d="M378 39h132v132H378z"></path><path fill="url(#underToHood_svg__d)" fill-opacity="0.5" d="M378 39h132v132H378z"></path><path stroke="url(#underToHood_svg__e)" stroke-opacity="0.1" stroke-width="0.5" d="M378.25 39.25h131.5v131.5h-131.5z"></path></g><path fill="#fff" fill-opacity="0.05" d="M499.836 66.107q.331-.287.646-.6c4.691-4.692 4.691-12.298 0-16.989-4.691-4.69-12.297-4.69-16.988 0q-.315.315-.601.646zm-1.431 1.063L481.83 50.595a12 12 0 0 0-.863 1.63l15.808 15.808a12 12 0 0 0 1.63-.863m-3.492 1.495-14.578-14.578c-.177.71-.289 1.433-.335 2.159L492.754 69a12 12 0 0 0 2.159-.335m-4.769.218-10.027-10.026a11.96 11.96 0 0 0 3.377 6.65 11.96 11.96 0 0 0 6.65 3.376"></path><path fill="#fff" fill-opacity="0.2" d="M389.479 150.199V151h-4.195v-7.046h.855v6.245zm5.649.801h-3.711v-.767h1.426v-5.512h-1.426v-.767h3.711v.767h-1.426v5.512h1.426zm2.759 0h-.777v-7.046h.826l3.017 5.484h.068v-5.484h.777V151h-.816l-3.027-5.498h-.068zm9.941-.791V151h-4.16v-7.046h4.16v.791h-3.296v2.285h3.115v.757h-3.115v2.422zm5.811.791-.611-2.021h-2.451l-.615 2.021h-.874l2.27-7.046h.918l2.271 7.046zm-1.846-6.011-.991 3.252h2.002l-.987-3.252zm6.475 3.203h-1.622V151h-.849v-7.046h2.363c1.397 0 2.271.811 2.271 2.119 0 .923-.513 1.68-1.314 1.944l1.436 2.983h-.972zm-1.622-3.471v2.744h1.397c.972 0 1.519-.493 1.519-1.372 0-.874-.538-1.372-1.48-1.372zm-31.967 16.404h.84c.087.771.708 1.24 1.645 1.24s1.553-.488 1.553-1.245c0-.61-.41-.976-1.363-1.211l-.605-.151c-1.309-.332-1.899-.952-1.899-1.973 0-1.201.903-1.977 2.309-1.977 1.328 0 2.241.766 2.3 1.938h-.84c-.088-.727-.625-1.157-1.455-1.157-.903 0-1.445.43-1.445 1.147 0 .611.39.962 1.308 1.192l.616.156c1.367.337 1.943.933 1.943 1.992 0 1.265-.952 2.07-2.427 2.07-1.455 0-2.407-.771-2.48-2.021m9.023 1.875h-.859v-2.905l-2.349-4.141h.962l1.782 3.223h.069l1.782-3.223h.962l-2.349 4.141zm4.185 0h-.777v-7.046h.826l3.017 5.484h.068v-5.484h.777V163h-.816l-3.027-5.498h-.068zm7.91-.669c.937 0 1.533-.561 1.557-1.47h.87c0 1.363-.987 2.285-2.427 2.285-1.655 0-2.617-1.118-2.617-3.042v-1.254c0-1.924.962-3.042 2.617-3.042 1.484 0 2.402.903 2.432 2.407h-.875c-.029-.952-.659-1.592-1.562-1.592-1.138 0-1.733.767-1.733 2.227v1.254c0 1.46.595 2.227 1.738 2.227m14.394-.122V163h-4.16v-7.046h4.16v.791h-3.295v2.285h3.115v.757h-3.115v2.422zm2.422.791h-.776v-7.046h.825l3.018 5.484h.068v-5.484h.776V163h-.815l-3.027-5.498h-.069zm9.424-2.158v-.689h-1.626v-.737h2.495v1.499c0 1.323-.996 2.231-2.417 2.231-1.655 0-2.612-1.113-2.612-3.042v-1.254c0-1.929.957-3.042 2.612-3.042 1.465 0 2.383.893 2.417 2.353h-.869c-.039-.918-.664-1.538-1.562-1.538-1.138 0-1.729.767-1.729 2.227v1.254c0 1.46.596 2.227 1.733 2.227.962 0 1.558-.566 1.558-1.489m6.362 2.158h-3.711v-.767h1.426v-5.512h-1.426v-.767h3.711v.767h-1.425v5.512h1.425zm2.759 0h-.776v-7.046h.825l3.018 5.484h.068v-5.484h.776V163h-.815l-3.027-5.498h-.069zm9.942-.791V163h-4.161v-7.046h4.161v.791h-3.296v2.285h3.115v.757h-3.115v2.422z"></path><path fill="url(#underToHood_svg__f)" fill-opacity="0.7" d="M389.479 150.199V151h-4.195v-7.046h.855v6.245zm5.649.801h-3.711v-.767h1.426v-5.512h-1.426v-.767h3.711v.767h-1.426v5.512h1.426zm2.759 0h-.777v-7.046h.826l3.017 5.484h.068v-5.484h.777V151h-.816l-3.027-5.498h-.068zm9.941-.791V151h-4.16v-7.046h4.16v.791h-3.296v2.285h3.115v.757h-3.115v2.422zm5.811.791-.611-2.021h-2.451l-.615 2.021h-.874l2.27-7.046h.918l2.271 7.046zm-1.846-6.011-.991 3.252h2.002l-.987-3.252zm6.475 3.203h-1.622V151h-.849v-7.046h2.363c1.397 0 2.271.811 2.271 2.119 0 .923-.513 1.68-1.314 1.944l1.436 2.983h-.972zm-1.622-3.471v2.744h1.397c.972 0 1.519-.493 1.519-1.372 0-.874-.538-1.372-1.48-1.372zm-31.967 16.404h.84c.087.771.708 1.24 1.645 1.24s1.553-.488 1.553-1.245c0-.61-.41-.976-1.363-1.211l-.605-.151c-1.309-.332-1.899-.952-1.899-1.973 0-1.201.903-1.977 2.309-1.977 1.328 0 2.241.766 2.3 1.938h-.84c-.088-.727-.625-1.157-1.455-1.157-.903 0-1.445.43-1.445 1.147 0 .611.39.962 1.308 1.192l.616.156c1.367.337 1.943.933 1.943 1.992 0 1.265-.952 2.07-2.427 2.07-1.455 0-2.407-.771-2.48-2.021m9.023 1.875h-.859v-2.905l-2.349-4.141h.962l1.782 3.223h.069l1.782-3.223h.962l-2.349 4.141zm4.185 0h-.777v-7.046h.826l3.017 5.484h.068v-5.484h.777V163h-.816l-3.027-5.498h-.068zm7.91-.669c.937 0 1.533-.561 1.557-1.47h.87c0 1.363-.987 2.285-2.427 2.285-1.655 0-2.617-1.118-2.617-3.042v-1.254c0-1.924.962-3.042 2.617-3.042 1.484 0 2.402.903 2.432 2.407h-.875c-.029-.952-.659-1.592-1.562-1.592-1.138 0-1.733.767-1.733 2.227v1.254c0 1.46.595 2.227 1.738 2.227m14.394-.122V163h-4.16v-7.046h4.16v.791h-3.295v2.285h3.115v.757h-3.115v2.422zm2.422.791h-.776v-7.046h.825l3.018 5.484h.068v-5.484h.776V163h-.815l-3.027-5.498h-.069zm9.424-2.158v-.689h-1.626v-.737h2.495v1.499c0 1.323-.996 2.231-2.417 2.231-1.655 0-2.612-1.113-2.612-3.042v-1.254c0-1.929.957-3.042 2.612-3.042 1.465 0 2.383.893 2.417 2.353h-.869c-.039-.918-.664-1.538-1.562-1.538-1.138 0-1.729.767-1.729 2.227v1.254c0 1.46.596 2.227 1.733 2.227.962 0 1.558-.566 1.558-1.489m6.362 2.158h-3.711v-.767h1.426v-5.512h-1.426v-.767h3.711v.767h-1.425v5.512h1.425zm2.759 0h-.776v-7.046h.825l3.018 5.484h.068v-5.484h.776V163h-.815l-3.027-5.498h-.069zm9.942-.791V163h-4.161v-7.046h4.161v.791h-3.296v2.285h3.115v.757h-3.115v2.422z"></path><path fill="#232426" d="M542.363 711.375v-1.578c0-1.598.942-2.402 2.809-2.402 1.883 0 2.828.804 2.828 2.402v1.578zm.633-.691h4.371v-.825c0-1.195-.699-1.761-2.191-1.761-1.477 0-2.18.57-2.18 1.761zm4.371-8.856H548v3.328h-5.637v-3.328h.633v2.637h1.828v-2.492h.606v2.492h1.937zm-.867-2.262v-.671c.617-.071.992-.567.992-1.317s-.39-1.242-.996-1.242c-.488 0-.781.328-.969 1.09l-.121.484c-.265 1.047-.761 1.52-1.578 1.52-.961 0-1.582-.723-1.582-1.848 0-1.062.613-1.793 1.551-1.84v.672c-.582.07-.926.5-.926 1.164 0 .723.344 1.156.918 1.156.488 0 .77-.312.953-1.047l.125-.492c.27-1.093.746-1.554 1.594-1.554 1.012 0 1.656.761 1.656 1.941 0 1.164-.617 1.926-1.617 1.984m1.5-9.359v2.969h-.613v-1.141h-4.41v1.141h-.614v-2.969h.614v1.141h4.41v-1.141zm-1.727-5.801h-.55v1.301h-.59v-1.996h1.199c1.059 0 1.785.797 1.785 1.934 0 1.324-.89 2.089-2.433 2.089h-1.004c-1.543 0-2.434-.765-2.434-2.089 0-1.172.715-1.907 1.883-1.934v.695c-.734.031-1.231.531-1.231 1.25 0 .91.614 1.383 1.782 1.383h1.004c1.168 0 1.781-.477 1.781-1.387 0-.769-.453-1.246-1.192-1.246m1.727-3.351v.621h-5.637v-.66l4.387-2.414v-.055h-4.387v-.621H548v.652L543.602 681v.055zm-.633-8.953H548v3.328h-5.637v-3.328h.633v2.636h1.828v-2.492h.606v2.492h1.937zm-5.004-2.344v-1.578c0-1.598.942-2.403 2.809-2.403 1.883 0 2.828.805 2.828 2.403v1.578zm.633-.692h4.371v-.824c0-1.195-.699-1.762-2.191-1.762-1.477 0-2.18.571-2.18 1.762zm1.508-13.07v.047l3.496.832v.648l-5.637.969v-.652l2.258-.34 2.348-.34v-.043l-3.317-.789v-.617l3.317-.789v-.043l-2.348-.34-2.258-.34v-.652l5.637.969v.648zm1.133-7.988c1.558 0 2.48.785 2.48 2.066s-.922 2.067-2.48 2.067h-.91c-1.559 0-2.481-.786-2.481-2.067s.922-2.066 2.481-2.066zm1.828 2.066c0-.855-.656-1.371-1.832-1.371h-.903c-1.175 0-1.832.516-1.832 1.371 0 .856.657 1.371 1.832 1.371h.903c1.176 0 1.832-.515 1.832-1.371m-1.711-6.16v1.297H548v.68h-5.637V644c0-1.117.649-1.816 1.696-1.816.738 0 1.343.41 1.554 1.05l2.387-1.148v.777zm-2.777 1.297h2.195v-1.117c0-.778-.395-1.215-1.098-1.215-.699 0-1.097.43-1.097 1.183zm4.382-8.938H548v3.356h-5.637v-.684h4.996zm-4.996-2.187v-1.578c0-1.598.942-2.403 2.809-2.403 1.883 0 2.828.805 2.828 2.403v1.578zm.633-.691h4.371v-.825c0-1.195-.699-1.761-2.191-1.761-1.477 0-2.18.57-2.18 1.761zm1.508-7.125v.046l3.496.832v.649l-5.637.969v-.653l2.258-.34 2.348-.339v-.043l-3.317-.789v-.618l3.317-.789v-.043l-2.348-.34-2.258-.339v-.653l5.637.969v.648zm3.496-7.407v2.969h-.613v-1.141h-4.41v1.141h-.614v-2.969h.614v1.141h4.41v-1.141zm-5.637-2.613v-1.578c0-1.598.942-2.402 2.809-2.402 1.883 0 2.828.804 2.828 2.402v1.578zm.633-.691h4.371v-.825c0-1.195-.699-1.761-2.191-1.761-1.477 0-2.18.57-2.18 1.761zm4.371-8.856H548v3.328h-5.637v-3.328h.633v2.637h1.828v-2.492h.606v2.492h1.937z"></path><path stroke="#fff" stroke-opacity="0.08" d="M356.5 17v706"></path><path fill="#4B4B4B" d="M369.219 700h-.621v-5.637h.66l2.414 4.387h.055v-4.387h.621V700h-.653l-2.422-4.398h-.054zm8.656 0-.488-1.617h-1.961l-.492 1.617h-.7l1.817-5.637h.734l1.817 5.637zm-1.477-4.809-.793 2.602h1.602l-.789-2.602zm6.309 4.809h-.687v-5.004h-1.704v-.633h4.094v.633h-1.703zm5.602-.535c.82 0 1.296-.539 1.296-1.465v-3.637h.688v3.68c0 1.297-.742 2.074-1.984 2.074-1.243 0-1.985-.777-1.985-2.074v-3.68h.688V698c0 .926.476 1.465 1.297 1.465m6.16-1.711h-1.297V700h-.68v-5.637h1.891c1.117 0 1.816.649 1.816 1.696 0 .738-.41 1.343-1.051 1.554l1.149 2.387h-.777zm-1.297-2.777v2.195h1.117c.777 0 1.215-.395 1.215-1.098 0-.699-.43-1.097-1.184-1.097zm8.484 5.023-.488-1.617h-1.961l-.492 1.617h-.699l1.816-5.637h.734l1.817 5.637zm-1.476-4.809-.793 2.602h1.601l-.789-2.602zm7.875 4.168V700h-3.356v-5.637h.684v4.996zm5.945 0V700h-3.355v-5.637h.683v4.996zm4.379.641h-.688v-2.324l-1.879-3.313h.77l1.426 2.578h.054l1.426-2.578h.77l-1.879 3.313zm13.301-.633V700h-3.328v-5.637h3.328v.633h-2.637v1.828h2.492v.606h-2.492v1.937zm2.773-1.531V700h-.613v-5.637h.769l1.239 3.5h.05l1.231-3.5h.773V700h-.613v-2.164l.035-2.281h-.051l-1.132 3.121h-.539l-1.133-3.121h-.051zm7.469 2.164h-1.844v-5.637h1.824c1.039 0 1.664.52 1.664 1.395 0 .621-.402 1.133-.968 1.23v.059c.757.074 1.254.625 1.254 1.379 0 .988-.719 1.574-1.93 1.574m-1.16-5.043v1.84h.879c.8 0 1.23-.324 1.23-.918 0-.59-.406-.922-1.125-.922zm0 4.445h1.011c.895 0 1.364-.351 1.364-1.023 0-.664-.473-1.008-1.387-1.008h-.988zm8.754-.035V700h-3.328v-5.637h3.328v.633h-2.637v1.828h2.492v.606h-2.492v1.937zm2.343-5.004h1.579c1.597 0 2.402.942 2.402 2.809 0 1.883-.805 2.828-2.402 2.828h-1.579zm.692.633v4.371h.824c1.195 0 1.762-.699 1.762-2.191 0-1.477-.571-2.18-1.762-2.18zm5.254-.633h1.578c1.597 0 2.402.942 2.402 2.809 0 1.883-.805 2.828-2.402 2.828h-1.578zm.691.633v4.371h.824c1.196 0 1.762-.699 1.762-2.191 0-1.477-.57-2.18-1.762-2.18zm8.856 4.371V700h-3.329v-5.637h3.329v.633h-2.637v1.828h2.492v.606h-2.492v1.937zm2.343-5.004h1.578c1.598 0 2.403.942 2.403 2.809 0 1.883-.805 2.828-2.403 2.828h-1.578zm.692.633v4.371h.824c1.195 0 1.762-.699 1.762-2.191 0-1.477-.571-2.18-1.762-2.18zM371.93 710l-.489-1.617h-1.961l-.492 1.617h-.699l1.816-5.637h.735l1.816 5.637zm-1.477-4.809-.793 2.602h1.602l-.789-2.602zm6.18 2.563h-1.297V710h-.68v-5.637h1.891c1.117 0 1.816.649 1.816 1.696 0 .738-.41 1.343-1.051 1.554l1.149 2.387h-.777zm-1.297-2.777v2.195h1.117c.777 0 1.215-.395 1.215-1.098 0-.699-.43-1.097-1.184-1.097zm7.371 5.023h-.687v-5.004h-1.704v-.633h4.094v.633h-1.703zm7.086 0h-2.969v-.613h1.141v-4.41h-1.141v-.614h2.969v.614h-1.141v4.41h1.141zm3.672 0h-.692v-5.637h3.325v.633h-2.633v1.934h2.406v.613h-2.406zm8.219 0h-2.969v-.613h1.14v-4.41h-1.14v-.614h2.969v.614h-1.141v4.41h1.141zm4.589-.535c.75 0 1.227-.449 1.247-1.176h.695c0 1.09-.789 1.828-1.942 1.828-1.324 0-2.093-.894-2.093-2.433v-1.004c0-1.539.769-2.434 2.093-2.434 1.188 0 1.922.723 1.946 1.926h-.699c-.024-.762-.528-1.274-1.25-1.274-.911 0-1.387.614-1.387 1.782v1.004c0 1.168.476 1.781 1.39 1.781m7.301.535h-2.969v-.613h1.141v-4.41h-1.141v-.614h2.969v.614h-1.14v4.41h1.14zm5.918 0-.488-1.617h-1.961l-.492 1.617h-.699l1.816-5.637h.734l1.817 5.637zm-1.476-4.809-.793 2.602h1.601l-.789-2.602zm7.875 4.168V710h-3.356v-5.637h.684v4.996zm11.464.641h-2.968v-.613h1.14v-4.41h-1.14v-.614h2.968v.614h-1.14v4.41h1.14zm3.207 0h-.621v-5.637h.661l2.414 4.387h.054v-4.387h.621V710h-.652l-2.422-4.398h-.055zm7.543 0h-.687v-5.004h-1.703v-.633h4.094v.633h-1.704zm7.356-.633V710h-3.328v-5.637h3.328v.633h-2.637v1.828h2.492v.606h-2.492v1.937zm6.101-.008V710h-3.355v-5.637h.684v4.996zm5.946 0V710h-3.356v-5.637h.684v4.996zm5.519.641h-2.968v-.613h1.14v-4.41h-1.14v-.614h2.968v.614h-1.14v4.41h1.14zm5.801-1.727v-.55h-1.301v-.59h1.996v1.199c0 1.059-.796 1.785-1.933 1.785-1.324 0-2.09-.89-2.09-2.433v-1.004c0-1.543.766-2.434 2.09-2.434 1.172 0 1.906.715 1.933 1.883h-.695c-.031-.734-.531-1.231-1.25-1.231-.91 0-1.383.614-1.383 1.782v1.004c0 1.168.477 1.781 1.387 1.781.77 0 1.246-.453 1.246-1.192m6.36 1.094V710h-3.329v-5.637h3.329v.633h-2.637v1.828h2.492v.606h-2.492v1.937zm2.937.633h-.621v-5.637h.66l2.414 4.387h.055v-4.387h.621V710h-.652l-2.422-4.398h-.055zm7.328-.535c.75 0 1.227-.449 1.246-1.176h.696c0 1.09-.79 1.828-1.942 1.828-1.324 0-2.094-.894-2.094-2.433v-1.004c0-1.539.77-2.434 2.094-2.434 1.188 0 1.922.723 1.945 1.926h-.699c-.023-.762-.527-1.274-1.25-1.274-.91 0-1.387.614-1.387 1.782v1.004c0 1.168.477 1.781 1.391 1.781m7.57-.098V710h-3.328v-5.637h3.328v.633h-2.636v1.828h2.492v.606h-2.492v1.937z"></path><path d="m371 683 3 4h-6z" class="underToHood_svg__UnderTheHood_orange__xadEI"></path><g stroke="#fff" stroke-opacity="0.08" clip-path="url(#underToHood_svg__g)"><path d="m187.354 558.646 175 175m-175-169 175 175m-175-169 175 175m-175-169 175 175m-175-169 175 175m-175-169 175 175m-175-169 175 175m-175-169 175 175m-175-169 175 175m-175-169 175 175m-175-169 175 175m-175-169 175 175m-175-169 175 175m-175-169 175 175m-175-169 175 175m-175-169 175 175m-175-169 175 175m-175-169 175 175m-175-169 175 175m-175-169 175 175m-175-169 175 175m-175-169 175 175m-175-169 175 175m-175-169 175 175m-175-169 175 175m-175-325 175 175m-175-181 175 175m-175-181 175 175m-175-181 175 175m-175-181 175 175m-175-181 175 175m-175-181 175 175m-175-181 175 175m-175-181 175 175m-175-181 175 175m-175-181 175 175m-175-181 175 175m-175-181 175 175m-175-181 175 175m-175-181 175 175m-175-181 175 175m-175-181 175 175m-175-181 175 175m-175-181 175 175m-175-181 175 175m-175-181 175 175m-175-181 175 175m-175-181 175 175m-175-181 175 175m-175-181 175 175m-175-181 175 175m-175-181 175 175m-175-181 175 175m-175-181 175 175m-175-181 175 175m-175-181 175 175m-175-181 175 175m-175-181 175 175"></path></g><path stroke="#fff" stroke-opacity="0.08" d="M356 534.5H206m150-259H206m541 259H529"></path><path fill="#414141" d="M320.5 522.457v-.672c.617-.07.992-.566.992-1.316s-.39-1.242-.996-1.242c-.488 0-.781.328-.969 1.089l-.121.485c-.265 1.047-.761 1.519-1.578 1.519-.961 0-1.582-.722-1.582-1.847 0-1.063.613-1.793 1.551-1.84v.672c-.582.07-.926.5-.926 1.164 0 .722.344 1.156.918 1.156.488 0 .77-.313.953-1.047l.125-.492c.27-1.094.746-1.555 1.594-1.555 1.012 0 1.656.762 1.656 1.942 0 1.164-.617 1.925-1.617 1.984m-.863-9.941c1.558 0 2.48.785 2.48 2.066s-.922 2.066-2.48 2.066h-.91c-1.559 0-2.481-.785-2.481-2.066s.922-2.066 2.481-2.066zm1.828 2.066c0-.855-.656-1.371-1.832-1.371h-.903c-1.175 0-1.832.516-1.832 1.371s.657 1.371 1.832 1.371h.903c1.176 0 1.832-.516 1.832-1.371m0-6.074c0-.75-.449-1.227-1.176-1.246v-.696c1.09 0 1.828.789 1.828 1.942 0 1.324-.894 2.094-2.433 2.094h-1.004c-1.539 0-2.434-.77-2.434-2.094 0-1.188.723-1.922 1.926-1.946v.7c-.762.023-1.274.527-1.274 1.25 0 .91.614 1.386 1.782 1.386h1.004c1.168 0 1.781-.476 1.781-1.39m-3.516-9.965c-.992 0-1.703-.734-1.703-1.762 0-1.035.641-1.746 1.582-1.746.586 0 1.055.266 2.035 1.164l1.446 1.328h.066v-2.582H322v3.567h-.477l-2.121-1.907c-.8-.714-1.101-.886-1.547-.886-.605 0-1.003.426-1.003 1.082 0 .648.433 1.078 1.097 1.078h.024v.664zm3.516-13.816c0-.75-.449-1.227-1.176-1.247v-.695c1.09 0 1.828.789 1.828 1.942 0 1.324-.894 2.093-2.433 2.093h-1.004c-1.539 0-2.434-.769-2.434-2.093 0-1.188.723-1.922 1.926-1.946v.699c-.762.024-1.274.528-1.274 1.25 0 .911.614 1.387 1.782 1.387h1.004c1.168 0 1.781-.476 1.781-1.39m-1.828-7.883c1.558 0 2.48.785 2.48 2.066s-.922 2.067-2.48 2.067h-.91c-1.559 0-2.481-.786-2.481-2.067s.922-2.066 2.481-2.066zm1.828 2.066c0-.855-.656-1.371-1.832-1.371h-.903c-1.175 0-1.832.516-1.832 1.371 0 .856.657 1.371 1.832 1.371h.903c1.176 0 1.832-.515 1.832-1.371m-1.629-4.527H322v.613h-5.637v-.769l3.5-1.239v-.051l-3.5-1.23v-.773H322v.613h-2.164l-2.281-.035v.05l3.121 1.133v.539l-3.121 1.133v.051zm-3.473-5.664v-1.875c0-1.094.715-1.809 1.809-1.809 1.09 0 1.805.723 1.805 1.824v1.168H322v.692zm.614-.692h2.386v-1.011c0-.821-.426-1.282-1.191-1.282-.77 0-1.195.461-1.195 1.282zm4.382-8.863H322v3.356h-5.637v-.684h4.996zm.641-5.519v2.968h-.613v-1.14h-4.41v1.14h-.614v-2.968h.614v1.14h4.41v-1.14zm0-5.918-1.617.488v1.961l1.617.492v.699l-5.637-1.816v-.735L322 447zm-4.809 1.476 2.602.793v-1.601l-2.602.789zm4.809-4.711v.621h-5.637v-.66l4.387-2.414v-.055h-4.387v-.621H322v.653l-4.398 2.421v.055zm0-7.543v.688h-5.004v1.703h-.633v-4.094h.633v1.703zm8.5 85.508v-.672c.617-.07.992-.566.992-1.316s-.39-1.242-.996-1.242c-.488 0-.781.328-.969 1.089l-.121.485c-.265 1.047-.761 1.519-1.578 1.519-.961 0-1.582-.722-1.582-1.847 0-1.063.613-1.793 1.551-1.84v.672c-.582.07-.926.5-.926 1.164 0 .722.344 1.156.918 1.156.488 0 .77-.313.953-1.047l.125-.492c.27-1.094.746-1.555 1.594-1.555 1.012 0 1.656.762 1.656 1.942 0 1.164-.617 1.925-1.617 1.984m0-5.945v-.672c.617-.07.992-.567.992-1.317s-.39-1.242-.996-1.242c-.488 0-.781.328-.969 1.09l-.121.484c-.265 1.047-.761 1.52-1.578 1.52-.961 0-1.582-.723-1.582-1.848 0-1.062.613-1.793 1.551-1.84v.672c-.582.071-.926.5-.926 1.164 0 .723.344 1.157.918 1.157.488 0 .77-.313.953-1.047l.125-.492c.27-1.094.746-1.555 1.594-1.555 1.012 0 1.656.762 1.656 1.941 0 1.164-.617 1.926-1.617 1.985m-.863-9.942c1.558 0 2.48.785 2.48 2.067 0 1.281-.922 2.066-2.48 2.066h-.91c-1.559 0-2.481-.785-2.481-2.066 0-1.282.922-2.067 2.481-2.067zm1.828 2.067c0-.856-.656-1.371-1.832-1.371h-.903c-1.175 0-1.832.515-1.832 1.371 0 .855.657 1.371 1.832 1.371h.903c1.176 0 1.832-.516 1.832-1.371m1.832-5.59v.629l-2.539-.485v-.879zM330.5 492.73v-.671c.617-.071.992-.567.992-1.317s-.39-1.242-.996-1.242c-.488 0-.781.328-.969 1.09l-.121.484c-.265 1.047-.761 1.52-1.578 1.52-.961 0-1.582-.723-1.582-1.848 0-1.062.613-1.793 1.551-1.84v.672c-.582.07-.926.5-.926 1.164 0 .723.344 1.156.918 1.156.488 0 .77-.312.953-1.046l.125-.493c.27-1.093.746-1.554 1.594-1.554 1.012 0 1.656.761 1.656 1.941 0 1.164-.617 1.926-1.617 1.984m1.5-9.332-1.617.489v1.961l1.617.492v.699l-5.637-1.816v-.735l5.637-1.816zm-4.809 1.477 2.602.793v-1.602l-2.602.789zm2.645-4.547H332v.613h-5.637v-.769l3.5-1.238v-.051l-3.5-1.231v-.773H332v.613h-2.164l-2.281-.035v.051l3.121 1.133v.539l-3.121 1.132v.051zm1.523-9.273H332v3.355h-5.637v-.683h4.996zm1.938-3.68v.629l-2.539-.484v-.879zm-2.797-10.316v-.672c.617-.071.992-.567.992-1.317s-.39-1.242-.996-1.242c-.488 0-.781.328-.969 1.09l-.121.484c-.265 1.047-.761 1.52-1.578 1.52-.961 0-1.582-.723-1.582-1.848 0-1.062.613-1.793 1.551-1.84v.672c-.582.071-.926.5-.926 1.164 0 .723.344 1.157.918 1.157.488 0 .77-.313.953-1.047l.125-.493c.27-1.093.746-1.554 1.594-1.554 1.012 0 1.656.762 1.656 1.941 0 1.164-.617 1.926-1.617 1.985m.965-8.004c0-.75-.449-1.227-1.176-1.246v-.696c1.09 0 1.828.789 1.828 1.942 0 1.324-.894 2.093-2.433 2.093h-1.004c-1.539 0-2.434-.769-2.434-2.093 0-1.188.723-1.922 1.926-1.946v.7c-.762.023-1.274.527-1.274 1.25 0 .91.614 1.386 1.782 1.386h1.004c1.168 0 1.781-.476 1.781-1.39m.535-7.301v2.969h-.613v-1.141h-4.41v1.141h-.614v-2.969h.614v1.141h4.41v-1.141zm-2.164-3.043H332v.613h-5.637v-.769l3.5-1.239v-.05l-3.5-1.231v-.773H332v.613h-2.164l-2.281-.035v.051l3.121 1.132v.539l-3.121 1.133v.051zM342 519.07l-1.617.489v1.961l1.617.492v.699l-5.637-1.816v-.735l5.637-1.816zm-4.809 1.477 2.602.793v-1.602l-2.602.789zm-.828-4.117v-1.578c0-1.598.942-2.403 2.809-2.403 1.883 0 2.828.805 2.828 2.403v1.578zm.633-.692h4.371v-.824c0-1.195-.699-1.762-2.191-1.762-1.477 0-2.18.571-2.18 1.762zm4.176-7.121-4.809-1.469v-.695L342 508.27v.734l-5.637 1.816v-.722l4.809-1.461zm.828-7.383-1.617.489v1.961l1.617.492v.699l-5.637-1.816v-.735l5.637-1.816zm-4.809 1.477 2.602.793v-1.602l-2.602.789zM342 498v.621h-5.637v-.66l4.387-2.414v-.055h-4.387v-.621H342v.652l-4.398 2.422V498zm-.535-7.328c0-.75-.449-1.227-1.176-1.246v-.696c1.09 0 1.828.79 1.828 1.942 0 1.324-.894 2.094-2.433 2.094h-1.004c-1.539 0-2.434-.77-2.434-2.094 0-1.188.723-1.922 1.926-1.945v.699c-.762.023-1.274.527-1.274 1.25 0 .91.614 1.386 1.782 1.386h1.004c1.168 0 1.781-.476 1.781-1.39m-.098-7.57H342v3.328h-5.637v-3.328h.633v2.636h1.828v-2.492h.606v2.492h1.937zm-5.004-2.344v-1.578c0-1.598.942-2.403 2.809-2.403 1.883 0 2.828.805 2.828 2.403v1.578zm.633-.692h4.371v-.824c0-1.195-.699-1.762-2.191-1.762-1.477 0-2.18.571-2.18 1.762zM342 465.562l-1.617.489v1.961l1.617.492v.699l-5.637-1.816v-.735l5.637-1.816zm-4.809 1.477 2.602.793v-1.602l-2.602.79zm-.828-4.117v-1.578c0-1.598.942-2.403 2.809-2.403 1.883 0 2.828.805 2.828 2.403v1.578zm.633-.692h4.371v-.824c0-1.195-.699-1.761-2.191-1.761-1.477 0-2.18.57-2.18 1.761zm2.84-5.683H342v.613h-5.637v-.769l3.5-1.239v-.05l-3.5-1.231v-.773H342v.613h-2.164l-2.281-.035v.051l3.121 1.132v.539l-3.121 1.133v.051zm2.164-8.848v2.969h-.613v-1.141h-4.41v1.141h-.614v-2.969h.614v1.141h4.41v-1.141zm0-3.207v.621h-5.637v-.66l4.387-2.414v-.055h-4.387v-.621H342v.653l-4.398 2.421v.055zm-.535-13.273c0-.75-.449-1.227-1.176-1.246v-.696c1.09 0 1.828.789 1.828 1.942 0 1.324-.894 2.093-2.433 2.093h-1.004c-1.539 0-2.434-.769-2.434-2.093 0-1.188.723-1.922 1.926-1.946v.7c-.762.023-1.274.527-1.274 1.25 0 .91.614 1.386 1.782 1.386h1.004c1.168 0 1.781-.476 1.781-1.39m-1.828-7.883c1.558 0 2.48.785 2.48 2.066 0 1.282-.922 2.067-2.48 2.067h-.91c-1.559 0-2.481-.785-2.481-2.067 0-1.281.922-2.066 2.481-2.066zm1.828 2.066c0-.855-.656-1.371-1.832-1.371h-.903c-1.175 0-1.832.516-1.832 1.371 0 .856.657 1.371 1.832 1.371h.903c1.176 0 1.832-.515 1.832-1.371m.535-4.691v.621h-5.637v-.66l4.387-2.414v-.055h-4.387v-.621H342v.652l-4.398 2.422v.055zm0-7.543v.687h-5.004v1.704h-.633v-4.094h.633v1.703zm-2.246-5.816v1.296H342v.68h-5.637v-1.891c0-1.117.649-1.816 1.696-1.816.738 0 1.343.41 1.554 1.051l2.387-1.149v.778zm-2.777 1.296h2.195v-1.117c0-.777-.395-1.215-1.098-1.215-.699 0-1.097.43-1.097 1.184zm2.66-9.093c1.558 0 2.48.785 2.48 2.066s-.922 2.066-2.48 2.066h-.91c-1.559 0-2.481-.785-2.481-2.066s.922-2.066 2.481-2.066zm1.828 2.066c0-.855-.656-1.371-1.832-1.371h-.903c-1.175 0-1.832.516-1.832 1.371 0 .856.657 1.371 1.832 1.371h.903c1.176 0 1.832-.515 1.832-1.371m-.106-7.855H342v3.355h-5.637v-.684h4.996zm-.859-2.106v-.672c.617-.07.992-.566.992-1.316s-.39-1.242-.996-1.242c-.488 0-.781.328-.969 1.09l-.121.484c-.265 1.047-.761 1.519-1.578 1.519-.961 0-1.582-.722-1.582-1.847 0-1.063.613-1.793 1.551-1.84v.672c-.582.07-.926.5-.926 1.164 0 .723.344 1.156.918 1.156.488 0 .77-.312.953-1.047l.125-.492c.27-1.094.746-1.555 1.594-1.555 1.012 0 1.656.762 1.656 1.942 0 1.164-.617 1.926-1.617 1.984"></path><rect width="23" height="11" x="222.5" y="506.5" stroke="#fff" stroke-opacity="0.1" rx="2.5"></rect><rect width="31" height="57" x="218.5" y="464.5" stroke="#fff" stroke-opacity="0.1" rx="2.5"></rect><path fill="#fff" fill-opacity="0.1" fill-rule="evenodd" d="M237 477a2 2 0 0 1 2 2v4a2 2 0 0 1-2 2h-6a2 2 0 0 1-2-2v-4a2 2 0 0 1 2-2zm-3 2a1.5 1.5 0 1 0 .001 3.001A1.5 1.5 0 0 0 234 479m0-8a3 3 0 0 1 3 3v2h-1.5v-2a1.5 1.5 0 0 0-3 0v2H231v-2a3 3 0 0 1 3-3" clip-rule="evenodd"></path><path fill="#fff" fill-opacity="0.1" d="M236.326 490.52a.75.75 0 0 0-1.152.96l1.475 1.77h-6.899a.75.75 0 0 0 0 1.5h6.899l-1.475 1.77a.75.75 0 0 0 1.152.96l2.5-3a.75.75 0 0 0 0-.96z"></path><rect width="8" height="8" x="236" y="508" fill="#fff" fill-opacity="0.05" rx="1"></rect><rect width="8" height="8" x="236" y="508" fill="#fff" fill-opacity="0.2" rx="1"></rect><rect width="8" height="8" x="236" y="508" fill="url(#underToHood_svg__h)" fill-opacity="0.7" rx="1"></rect><rect width="7" height="7" x="236.5" y="508.5" stroke="#fff" stroke-opacity="0.1" rx="0.5"></rect><rect width="55" height="79" x="218.5" y="183.5" stroke="#fff" stroke-opacity="0.1" rx="2.5"></rect><path fill="#fff" fill-opacity="0.1" fill-rule="evenodd" d="M241.25 249a.75.75 0 0 1 .75-.75h8a.75.75 0 0 1 0 1.5h-8a.75.75 0 0 1-.75-.75" clip-rule="evenodd"></path><path fill="#fff" fill-opacity="0.1" d="M246.75 192a.75.75 0 0 0-1.5 0v4.25H241a.75.75 0 0 0 0 1.5h4.25V202a.75.75 0 0 0 1.5 0v-4.25H251a.75.75 0 0 0 0-1.5h-4.25z"></path><g clip-path="url(#underToHood_svg__i)"><rect width="48" height="28" x="222" y="209" fill="#101113" rx="3"></rect><path fill="#fff" fill-opacity="0.08" d="M227.624 240.029c-1.523-.408-2.346-1.636-2.055-3.062l.962.258c-.138.879.434 1.663 1.39 1.919 1.053.282 1.954-.271 2.251-1.38.3-1.121-.204-2.069-1.251-2.35-.73-.195-1.425-.024-1.903.467l-.945-.253 1.649-4.502 4.466 1.197-.241.9-3.679-.986-.941 2.605.091.024c.532-.379 1.183-.477 1.902-.285 1.511.405 2.262 1.813 1.831 3.421-.442 1.652-1.869 2.471-3.527 2.027m6.258 3.515-.911-.244 1.688-3.491 1.273.341zm8.14.367c-1.778-.476-2.35-2.255-1.613-5.006.737-2.75 2.122-4.005 3.9-3.529 1.771.475 2.349 2.256 1.612 5.006s-2.128 4.004-3.899 3.529m-.623-4.74c-.086.322-.15.627-.201.91l4.031-1.868c.005-1.084-.387-1.748-1.157-1.954-1.155-.309-2.078.693-2.673 2.912m.859 3.857c1.155.31 2.074-.7 2.667-2.913.088-.328.157-.631.205-.922l-4.026 1.894c-.002 1.073.384 1.735 1.154 1.941m6.929 2.803c-1.777-.476-2.35-2.255-1.613-5.006s2.123-4.005 3.9-3.529c1.771.475 2.35 2.256 1.613 5.006s-2.129 4.004-3.9 3.529m-.623-4.741a12 12 0 0 0-.201.911l4.031-1.868c.005-1.084-.387-1.748-1.157-1.954-1.154-.309-2.078.693-2.673 2.911m.859 3.858c1.155.309 2.075-.7 2.667-2.913.088-.328.157-.631.205-.922l-4.026 1.894c-.002 1.073.385 1.735 1.154 1.941m10.058 3.441-5.694-1.525.235-.878 2.411.646 1.65-6.157-.09-.025-2.743.885.286-1.064 2.856-.927.979.262-1.953 7.29 2.298.616zm-29.095-34.8-.462-1.727-3.725.998-.216-.809 1.264-6.375 1.019-.273-1.26 6.234.02.074 2.677-.718-.625-2.331.906-.243.621 2.32 1.246-.333.235.877-1.251.335.462 1.726zm6.197.353-.911.244-.284-3.867 1.274-.341zm2.901-8.736c-.434-1.618.418-3.102 2.031-3.535 1.613-.432 3.084.418 3.521 2.048.248.928.152 1.882-.339 3.263-.04.144-1.096 2.975-1.135 3.076l-1.143.307 1.404-3.658c.118-.305.138-.389.165-.494l-.097-.022c-.156.393-.668.791-1.183.929-1.46.392-2.824-.42-3.224-1.914m2.263-2.645c-1.024.275-1.59 1.288-1.309 2.335.282 1.053 1.278 1.647 2.303 1.373 1.03-.276 1.595-1.289 1.313-2.342-.28-1.047-1.277-1.642-2.307-1.366m4.902.725c-.434-1.618.418-3.102 2.031-3.535 1.613-.432 3.084.418 3.521 2.048.249.928.152 1.882-.339 3.263a241 241 0 0 1-1.135 3.076l-1.143.307 1.404-3.658c.118-.305.138-.389.165-.493l-.097-.023c-.156.394-.668.792-1.183.93-1.46.391-2.824-.421-3.224-1.915m2.264-2.644c-1.025.274-1.591 1.287-1.31 2.334.282 1.053 1.278 1.647 2.303 1.373 1.03-.276 1.596-1.289 1.314-2.342-.281-1.047-1.277-1.641-2.307-1.365m4.901.724c-.434-1.618.418-3.102 2.031-3.534 1.613-.433 3.084.417 3.521 2.047.249.928.153 1.882-.339 3.263a241 241 0 0 1-1.135 3.076l-1.143.307 1.404-3.658c.118-.305.138-.389.165-.493l-.097-.023c-.155.394-.667.792-1.183.93-1.46.391-2.824-.42-3.224-1.915m2.264-2.644c-1.025.274-1.59 1.287-1.31 2.334.282 1.053 1.279 1.647 2.303 1.373 1.03-.276 1.596-1.289 1.314-2.342-.281-1.047-1.277-1.641-2.307-1.365"></path><path fill="#fff" fill-opacity="0.2" d="M230.639 227.17c-1.577 0-2.69-.973-2.778-2.426h.996c.094.885.85 1.494 1.84 1.494 1.09 0 1.817-.767 1.817-1.916 0-1.16-.733-1.945-1.817-1.945-.756 0-1.383.346-1.717.943h-.978l.428-4.775h4.623v.932h-3.809l-.234 2.759h.094c.416-.504 1.019-.767 1.763-.767 1.565 0 2.654 1.166 2.654 2.83 0 1.711-1.166 2.871-2.882 2.871m6.955 1.775h-.944l.727-3.808h1.318zm7.957-1.752c-1.84 0-2.854-1.57-2.854-4.418s1.014-4.418 2.854-4.418c1.834 0 2.853 1.571 2.853 4.418s-1.019 4.418-2.853 4.418m-1.828-4.418c0 .334.017.645.041.932l3.41-2.848c-.276-1.048-.826-1.588-1.623-1.588-1.196 0-1.828 1.208-1.828 3.504m1.828 3.504c1.195 0 1.822-1.213 1.822-3.504 0-.339-.012-.65-.041-.943l-3.398 2.871c.275 1.037.82 1.576 1.617 1.576m7.418.914c-1.84 0-2.854-1.57-2.854-4.418s1.014-4.418 2.854-4.418c1.834 0 2.853 1.571 2.853 4.418s-1.019 4.418-2.853 4.418m-1.828-4.418c0 .334.017.645.041.932l3.41-2.848c-.276-1.048-.826-1.588-1.623-1.588-1.196 0-1.828 1.208-1.828 3.504m1.828 3.504c1.195 0 1.822-1.213 1.822-3.504 0-.339-.012-.65-.041-.943l-3.398 2.871c.275 1.037.82 1.576 1.617 1.576m7.418.914c-1.84 0-2.854-1.57-2.854-4.418s1.014-4.418 2.854-4.418c1.834 0 2.853 1.571 2.853 4.418s-1.019 4.418-2.853 4.418m-1.828-4.418c0 .334.017.645.041.932l3.41-2.848c-.276-1.048-.826-1.588-1.623-1.588-1.196 0-1.828 1.208-1.828 3.504m1.828 3.504c1.195 0 1.822-1.213 1.822-3.504 0-.339-.012-.65-.041-.943l-3.398 2.871c.275 1.037.82 1.576 1.617 1.576"></path><path fill="url(#underToHood_svg__j)" fill-opacity="0.7" d="M230.639 227.17c-1.577 0-2.69-.973-2.778-2.426h.996c.094.885.85 1.494 1.84 1.494 1.09 0 1.817-.767 1.817-1.916 0-1.16-.733-1.945-1.817-1.945-.756 0-1.383.346-1.717.943h-.978l.428-4.775h4.623v.932h-3.809l-.234 2.759h.094c.416-.504 1.019-.767 1.763-.767 1.565 0 2.654 1.166 2.654 2.83 0 1.711-1.166 2.871-2.882 2.871m6.955 1.775h-.944l.727-3.808h1.318zm7.957-1.752c-1.84 0-2.854-1.57-2.854-4.418s1.014-4.418 2.854-4.418c1.834 0 2.853 1.571 2.853 4.418s-1.019 4.418-2.853 4.418m-1.828-4.418c0 .334.017.645.041.932l3.41-2.848c-.276-1.048-.826-1.588-1.623-1.588-1.196 0-1.828 1.208-1.828 3.504m1.828 3.504c1.195 0 1.822-1.213 1.822-3.504 0-.339-.012-.65-.041-.943l-3.398 2.871c.275 1.037.82 1.576 1.617 1.576m7.418.914c-1.84 0-2.854-1.57-2.854-4.418s1.014-4.418 2.854-4.418c1.834 0 2.853 1.571 2.853 4.418s-1.019 4.418-2.853 4.418m-1.828-4.418c0 .334.017.645.041.932l3.41-2.848c-.276-1.048-.826-1.588-1.623-1.588-1.196 0-1.828 1.208-1.828 3.504m1.828 3.504c1.195 0 1.822-1.213 1.822-3.504 0-.339-.012-.65-.041-.943l-3.398 2.871c.275 1.037.82 1.576 1.617 1.576m7.418.914c-1.84 0-2.854-1.57-2.854-4.418s1.014-4.418 2.854-4.418c1.834 0 2.853 1.571 2.853 4.418s-1.019 4.418-2.853 4.418m-1.828-4.418c0 .334.017.645.041.932l3.41-2.848c-.276-1.048-.826-1.588-1.623-1.588-1.196 0-1.828 1.208-1.828 3.504m1.828 3.504c1.195 0 1.822-1.213 1.822-3.504 0-.339-.012-.65-.041-.943l-3.398 2.871c.275 1.037.82 1.576 1.617 1.576"></path></g><rect width="47" height="27" x="222.5" y="209.5" stroke="#28292B" rx="2.5"></rect><path fill="#414141" d="M328.504 260.504v.047l3.496.832v.648l-5.637.969v-.652l2.258-.34 2.348-.34v-.043l-3.317-.789v-.617l3.317-.789v-.043l-2.348-.34-2.258-.34v-.652l5.637.968v.649zm1.133-7.988c1.558 0 2.48.785 2.48 2.066s-.922 2.066-2.48 2.066h-.91c-1.559 0-2.481-.785-2.481-2.066s.922-2.066 2.481-2.066zm1.828 2.066c0-.855-.656-1.371-1.832-1.371h-.903c-1.175 0-1.832.516-1.832 1.371s.657 1.371 1.832 1.371h.903c1.176 0 1.832-.516 1.832-1.371m-1.711-6.16v1.297H332v.679h-5.637v-1.89c0-1.117.649-1.817 1.696-1.817.738 0 1.343.411 1.554 1.051l2.387-1.148v.777zm-2.777 1.297h2.195v-1.117c0-.778-.395-1.215-1.098-1.215-.699 0-1.097.429-1.097 1.183zm5.023-6.074v.675h-5.637v-.675h2.805v-.051l-2.805-2.282v-.804l2.492 2.086 3.145-2.289v.855l-2.613 1.899.695.586zm-1.5-4.969v-.672c.617-.07.992-.567.992-1.317s-.39-1.242-.996-1.242c-.488 0-.781.328-.969 1.09l-.121.485c-.265 1.046-.761 1.519-1.578 1.519-.961 0-1.582-.723-1.582-1.848 0-1.062.613-1.793 1.551-1.839v.671c-.582.071-.926.5-.926 1.164 0 .723.344 1.157.918 1.157.488 0 .77-.313.953-1.047l.125-.492c.27-1.094.746-1.555 1.594-1.555 1.012 0 1.656.762 1.656 1.941 0 1.164-.617 1.926-1.617 1.985m-4.137-6.176v-1.875c0-1.094.715-1.809 1.809-1.809 1.09 0 1.805.723 1.805 1.825v1.168H332v.691zm.614-.691h2.386v-1.012c0-.82-.426-1.281-1.191-1.281-.77 0-1.195.461-1.195 1.281zm5.023-8.411-1.617.489v1.961l1.617.492v.699l-5.637-1.816v-.735l5.637-1.816zm-4.809 1.477 2.602.793v-1.602l-2.602.789zm4.274-6.094c0-.75-.449-1.226-1.176-1.246v-.695c1.09 0 1.828.789 1.828 1.941 0 1.324-.894 2.094-2.433 2.094h-1.004c-1.539 0-2.434-.77-2.434-2.094 0-1.187.723-1.922 1.926-1.945v.699c-.762.024-1.274.527-1.274 1.25 0 .91.614 1.387 1.782 1.387h1.004c1.168 0 1.781-.477 1.781-1.391m-.098-7.57H332v3.328h-5.637v-3.328h.633v2.637h1.828v-2.493h.606v2.493h1.937zm8.469 50.734H342v.614h-5.637v-.77l3.5-1.238v-.051l-3.5-1.23v-.774H342v.613h-2.164l-2.281-.035v.051l3.121 1.133v.539l-3.121 1.133v.05zm1.531-9.117H342v3.328h-5.637v-3.328h.633v2.637h1.828v-2.492h.606v2.492h1.937zm-1.531-2.773H342v.613h-5.637v-.77l3.5-1.238v-.051l-3.5-1.23v-.774H342v.614h-2.164l-2.281-.035v.05l3.121 1.133v.539l-3.121 1.133v.051zm2.164-7.469v1.844h-5.637v-1.825c0-1.039.52-1.664 1.395-1.664.621 0 1.133.403 1.23.969h.059c.074-.758.625-1.254 1.379-1.254.988 0 1.574.719 1.574 1.93m-5.043 1.16h1.84v-.879c0-.801-.324-1.23-.918-1.23-.59 0-.922.406-.922 1.125zm4.445 0v-1.012c0-.894-.351-1.363-1.023-1.363-.664 0-1.008.473-1.008 1.387v.988zm-.035-8.754H342v3.328h-5.637v-3.328h.633v2.637h1.828v-2.492h.606v2.492h1.937zm-1.613-4.406v1.297H342v.679h-5.637v-1.89c0-1.117.649-1.817 1.696-1.817.738 0 1.343.411 1.554 1.051l2.387-1.148v.777zm-2.777 1.297h2.195v-1.117c0-.778-.395-1.215-1.098-1.215-.699 0-1.097.429-1.097 1.183zm3.523-5.098v-.672c.617-.07.992-.566.992-1.316s-.39-1.242-.996-1.242c-.488 0-.781.328-.969 1.09l-.121.484c-.265 1.047-.761 1.519-1.578 1.519-.961 0-1.582-.722-1.582-1.847 0-1.063.613-1.793 1.551-1.84v.672c-.582.07-.926.5-.926 1.164 0 .723.344 1.156.918 1.156.488 0 .77-.312.953-1.047l.125-.492c.27-1.094.746-1.555 1.594-1.555 1.012 0 1.656.762 1.656 1.942 0 1.164-.617 1.926-1.617 1.984"></path><g stroke="#fff" stroke-opacity="0.08" clip-path="url(#underToHood_svg__k)"><path d="m510.354 40.646 175 175m-175-169 175 175m-175-169 175 175m-175-169 175 175m-175-169 175 175m-175-169 175 175m-175-169 175 175m-175-169 175 175m-175-169 175 175m-175-169 175 175m-175-169 175 175m-175-169 175 175m-175-169 175 175m-175-169 175 175m-175-169 175 175m-175-169 175 175m-175-169 175 175m-175-169 175 175m-175-169 175 175m-175-169 175 175m-175-169 175 175m-175-169 175 175m-175-169 175 175m-175-169 175 175m-175-169 175 175m-175-169 175 175m-175-169 175 175m-175-169 175 175m-175-169 175 175m-175-169 175 175m-175-169 175 175m-175-169 175 175m-175-169 175 175m-175-169 175 175m-175-169 175 175m-175-169 175 175m-175-169 175 175m-175-169 175 175m-175-169 175 175m-175-169 175 175m-175-169 175 175m-175-169 175 175m-175-169 175 175m-175-169 175 175m-175-169 175 175m-175-169 175 175m-175-169 175 175m-175-169 175 175m-175-169 175 175m-175-169 175 175m-175-169 175 175m-175-169 175 175m-175-169 175 175m-175-169 175 175m-175-169 175 175m-175-169 175 175m-175-169 175 175m-175-169 175 175m-175-169 175 175m-175-169 175 175m-175-169 175 175m-175-169 175 175m-175-169 175 175m-175-169 175 175m-175-169 175 175m-175-169 175 175m-175-169 175 175m-175-169 175 175m-175-169 175 175m-175-169 175 175m-175-169 175 175m-175-169 175 175m-175-169 175 175m-175-169 175 175m-175-169 175 175m-175-169 175 175m-175-169 175 175m-175-169 175 175m-175-169 175 175m-175-169 175 175m-175-655 175 175m-175-181 175 175m-175-181 175 175m-175-181 175 175m-175-181 175 175m-175-181 175 175m-175-181 175 175m-175-181 175 175m-175-181 175 175m-175-181 175 175m-175-181 175 175m-175-181 175 175m-175-181 175 175m-175-181 175 175m-175-181 175 175m-175-181 175 175m-175-181 175 175m-175-181 175 175m-175-181 175 175m-175-181 175 175m-175-181 175 175m-175-181 175 175m-175-181 175 175m-175-181 175 175m-175-181 175 175m-175-181 175 175.001m-175-181.001 175 175.001m-175-181.001 175 175.001m-175-181.001 175 175.001m-175-181.001 175 175.001m-175-181.001 175 175m-175-181 175 175m-175-181 175 175"></path></g><path fill="#101113" d="M599 474.364a4.363 4.363 0 1 1-8.727 0 4.363 4.363 0 0 1 8.727 0m0 13.091a4.363 4.363 0 1 1-8.727 0 4.363 4.363 0 0 1 8.727 0m0 13.09a4.364 4.364 0 1 1-8.728 0 4.364 4.364 0 0 1 8.728 0m0 13.091a4.364 4.364 0 1 1-8.728 0 4.364 4.364 0 0 1 8.728 0m-13.091-26.181a4.363 4.363 0 1 1-8.727 0 4.363 4.363 0 0 1 8.727 0m0 13.09a4.364 4.364 0 1 1-8.728 0 4.364 4.364 0 0 1 8.728 0m0 13.091a4.364 4.364 0 1 1-8.728 0 4.364 4.364 0 0 1 8.728 0m-13.091-26.181a4.363 4.363 0 1 1-8.727 0 4.363 4.363 0 0 1 8.727 0m0 13.09a4.363 4.363 0 1 1-8.727.001 4.363 4.363 0 0 1 8.727-.001m0 13.091a4.363 4.363 0 1 1-8.727.001 4.363 4.363 0 0 1 8.727-.001m-13.091-26.181a4.363 4.363 0 1 1-8.727 0 4.363 4.363 0 0 1 8.727 0m0 13.09a4.363 4.363 0 1 1-8.727.001 4.363 4.363 0 0 1 8.727-.001m0 13.091a4.363 4.363 0 1 1-8.727.001 4.363 4.363 0 0 1 8.727-.001M651 474.364a4.363 4.363 0 1 1-8.727 0 4.363 4.363 0 0 1 8.727 0m0 13.091a4.363 4.363 0 1 1-8.727 0 4.363 4.363 0 0 1 8.727 0m0 13.09a4.364 4.364 0 1 1-8.728 0 4.364 4.364 0 0 1 8.728 0m0 13.091a4.364 4.364 0 1 1-8.728 0 4.364 4.364 0 0 1 8.728 0m-13.091-39.272a4.363 4.363 0 1 1-8.727 0 4.363 4.363 0 0 1 8.727 0m0 13.091a4.363 4.363 0 1 1-8.727 0 4.363 4.363 0 0 1 8.727 0m0 13.09a4.364 4.364 0 1 1-8.728 0 4.364 4.364 0 0 1 8.728 0m0 13.091a4.364 4.364 0 1 1-8.728 0 4.364 4.364 0 0 1 8.728 0m-13.091-39.272a4.363 4.363 0 1 1-8.727 0 4.363 4.363 0 0 1 8.727 0m0 13.091a4.363 4.363 0 1 1-8.727 0 4.363 4.363 0 0 1 8.727 0m0 13.09a4.363 4.363 0 1 1-8.727.001 4.363 4.363 0 0 1 8.727-.001m0 13.091a4.363 4.363 0 1 1-8.727.001 4.363 4.363 0 0 1 8.727-.001m-13.091-39.272a4.363 4.363 0 1 1-8.727 0 4.363 4.363 0 0 1 8.727 0m0 13.091a4.363 4.363 0 1 1-8.727 0 4.363 4.363 0 0 1 8.727 0m0 13.09a4.363 4.363 0 1 1-8.727.001 4.363 4.363 0 0 1 8.727-.001m0 13.091a4.363 4.363 0 1 1-8.727.001 4.363 4.363 0 0 1 8.727-.001"></path><path fill="#fff" fill-opacity="0.08" fill-rule="evenodd" d="M594.636 477.727a3.364 3.364 0 1 0 0-6.727 3.364 3.364 0 0 0 0 6.727m0 13.091a3.364 3.364 0 1 0 0-6.727 3.364 3.364 0 0 0 0 6.727m0 13.091a3.364 3.364 0 1 0 0-6.728 3.364 3.364 0 0 0 0 6.728m0 13.091a3.364 3.364 0 1 0 0-6.728 3.364 3.364 0 0 0 0 6.728m-13.091-26.182a3.364 3.364 0 1 0 0-6.727 3.364 3.364 0 0 0 0 6.727m0 13.091a3.364 3.364 0 1 0 0-6.728 3.364 3.364 0 0 0 0 6.728m0 13.091a3.364 3.364 0 1 0 0-6.728 3.364 3.364 0 0 0 0 6.728m-13.09-26.182a3.363 3.363 0 1 0 0-6.727 3.363 3.363 0 0 0 0 6.727m0 13.091a3.364 3.364 0 1 0-.001-6.727 3.364 3.364 0 0 0 .001 6.727m0 13.091a3.364 3.364 0 1 0-.001-6.727 3.364 3.364 0 0 0 .001 6.727m-13.091-26.182a3.363 3.363 0 1 0 0-6.727 3.363 3.363 0 0 0 0 6.727m0 13.091a3.364 3.364 0 1 0-.001-6.727 3.364 3.364 0 0 0 .001 6.727m0 13.091a3.364 3.364 0 1 0-.001-6.727 3.364 3.364 0 0 0 .001 6.727m91.272-39.273a3.364 3.364 0 1 0 0-6.727 3.364 3.364 0 0 0 0 6.727m0 13.091a3.364 3.364 0 1 0 0-6.727 3.364 3.364 0 0 0 0 6.727m0 13.091a3.364 3.364 0 1 0 0-6.728 3.364 3.364 0 0 0 0 6.728m0 13.091a3.364 3.364 0 1 0 0-6.728 3.364 3.364 0 0 0 0 6.728m-13.091-39.273a3.364 3.364 0 1 0 0-6.727 3.364 3.364 0 0 0 0 6.727m0 13.091a3.364 3.364 0 1 0 0-6.727 3.364 3.364 0 0 0 0 6.727m0 13.091a3.364 3.364 0 1 0 0-6.728 3.364 3.364 0 0 0 0 6.728m0 13.091a3.364 3.364 0 1 0 0-6.728 3.364 3.364 0 0 0 0 6.728m-13.09-39.273a3.363 3.363 0 1 0 0-6.727 3.363 3.363 0 0 0 0 6.727m0 13.091a3.363 3.363 0 1 0 0-6.727 3.363 3.363 0 0 0 0 6.727m0 13.091a3.364 3.364 0 1 0-.001-6.727 3.364 3.364 0 0 0 .001 6.727m0 13.091a3.364 3.364 0 1 0-.001-6.727 3.364 3.364 0 0 0 .001 6.727m-13.091-39.273a3.363 3.363 0 1 0 0-6.727 3.363 3.363 0 0 0 0 6.727m0 13.091a3.363 3.363 0 1 0 0-6.727 3.363 3.363 0 0 0 0 6.727m0 13.091a3.364 3.364 0 1 0-.001-6.727 3.364 3.364 0 0 0 .001 6.727m0 13.091a3.364 3.364 0 1 0-.001-6.727 3.364 3.364 0 0 0 .001 6.727M599 474.364a4.363 4.363 0 1 1-8.727 0 4.363 4.363 0 0 1 8.727 0m0 13.091a4.363 4.363 0 1 1-8.727 0 4.363 4.363 0 0 1 8.727 0m-4.364 17.454a4.364 4.364 0 1 0 0-8.728 4.364 4.364 0 0 0 0 8.728m4.364 8.727a4.364 4.364 0 1 1-8.728 0 4.364 4.364 0 0 1 8.728 0m-17.455-21.818a4.363 4.363 0 1 0 .001-8.727 4.363 4.363 0 0 0-.001 8.727m4.364 8.727a4.364 4.364 0 1 1-8.728 0 4.364 4.364 0 0 1 8.728 0M581.545 518a4.364 4.364 0 1 0 0-8.728 4.364 4.364 0 0 0 0 8.728m-8.727-30.545a4.363 4.363 0 1 1-8.727 0 4.363 4.363 0 0 1 8.727 0m-4.363 17.454a4.363 4.363 0 1 0 0-8.727 4.363 4.363 0 0 0 0 8.727m4.363 8.727a4.363 4.363 0 1 1-8.727.001 4.363 4.363 0 0 1 8.727-.001m-17.454-21.818a4.363 4.363 0 1 0 0-8.727 4.363 4.363 0 0 0 0 8.727m4.363 8.727a4.363 4.363 0 1 1-8.727.001 4.363 4.363 0 0 1 8.727-.001M555.364 518a4.363 4.363 0 1 0 0-8.727 4.363 4.363 0 0 0 0 8.727M651 474.364a4.363 4.363 0 1 1-8.727 0 4.363 4.363 0 0 1 8.727 0m-4.364 17.454a4.363 4.363 0 1 0 .001-8.727 4.363 4.363 0 0 0-.001 8.727m4.364 8.727a4.364 4.364 0 1 1-8.728 0 4.364 4.364 0 0 1 8.728 0M646.636 518a4.364 4.364 0 1 0 0-8.728 4.364 4.364 0 0 0 0 8.728m-8.727-43.636a4.363 4.363 0 1 1-8.727 0 4.363 4.363 0 0 1 8.727 0m-4.364 17.454a4.363 4.363 0 1 0 .001-8.727 4.363 4.363 0 0 0-.001 8.727m4.364 8.727a4.364 4.364 0 1 1-8.728 0 4.364 4.364 0 0 1 8.728 0M633.545 518a4.364 4.364 0 1 0 0-8.728 4.364 4.364 0 0 0 0 8.728m-8.727-43.636a4.363 4.363 0 1 1-8.727 0 4.363 4.363 0 0 1 8.727 0m-4.363 17.454a4.363 4.363 0 1 0 0-8.727 4.363 4.363 0 0 0 0 8.727m4.363 8.727a4.363 4.363 0 1 1-8.727.001 4.363 4.363 0 0 1 8.727-.001M620.455 518a4.363 4.363 0 1 0 0-8.727 4.363 4.363 0 0 0 0 8.727m-8.728-43.636a4.363 4.363 0 1 1-8.727 0 4.363 4.363 0 0 1 8.727 0m-4.363 17.454a4.363 4.363 0 1 0 0-8.727 4.363 4.363 0 0 0 0 8.727m4.363 8.727a4.363 4.363 0 1 1-8.727.001 4.363 4.363 0 0 1 8.727-.001M607.364 518a4.363 4.363 0 1 0 0-8.727 4.363 4.363 0 0 0 0 8.727" clip-rule="evenodd"></path><path fill="#373737" d="m570.104 479-.63-2.364h-2.773l-.636 2.364H564.6l2.694-9h1.684l2.694 9zm-2.041-7.422-1.035 3.861h2.125l-1.029-3.861zM572.49 470h3.082c1.78 0 2.925 1.173 2.925 3 0 1.815-1.169 2.988-2.986 2.988h-1.556V479h-1.465zm1.465 1.26v3.468h1.254c1.18 0 1.804-.593 1.804-1.734s-.624-1.734-1.804-1.734zM585 479h-5.05v-1.297h1.792v-6.406h-1.792V470H585v1.297h-1.792v6.406H585zm-26.506-1.085a4.48 4.48 0 0 0 .244-6.596 4.56 4.56 0 0 0-6.645.243zm-.541.399-6.262-6.216a4.6 4.6 0 0 0-.326.612l5.972 5.927a4.5 4.5 0 0 0 .616-.323m-1.319.56-5.507-5.466q-.101.4-.127.809l4.818 4.783a4.5 4.5 0 0 0 .816-.126m-1.802.082-3.788-3.76a4.53 4.53 0 0 0 3.788 3.76"></path><path stroke="#fff" stroke-opacity="0.08" d="M529.5 17v706"></path><defs><linearGradient id="underToHood_svg__d" x1="444" x2="444" y1="-22.304" y2="312.706" gradientUnits="userSpaceOnUse"><stop></stop><stop offset="1" stop-color="#616A73"></stop></linearGradient><linearGradient id="underToHood_svg__e" x1="444" x2="444" y1="39" y2="105" gradientUnits="userSpaceOnUse"><stop stop-color="#fff"></stop><stop offset="1" stop-color="#fff" stop-opacity="0"></stop></linearGradient><linearGradient id="underToHood_svg__f" x1="418" x2="418" y1="141" y2="165" gradientUnits="userSpaceOnUse"><stop stop-color="#4B4B4B" stop-opacity="0.5"></stop><stop offset="1" stop-color="#B1B1B1"></stop></linearGradient><linearGradient id="underToHood_svg__h" x1="240" x2="240" y1="508" y2="516" gradientUnits="userSpaceOnUse"><stop stop-color="#4B4B4B" stop-opacity="0.5"></stop><stop offset="1" stop-color="#B1B1B1"></stop></linearGradient><linearGradient id="underToHood_svg__j" x1="246" x2="246" y1="216" y2="230" gradientUnits="userSpaceOnUse"><stop stop-color="#4B4B4B" stop-opacity="0.5"></stop><stop offset="1" stop-color="#B1B1B1"></stop></linearGradient><clipPath id="underToHood_svg__g"><path fill="#fff" d="M207 535h149v188H215a8 8 0 0 1-8-8z"></path></clipPath><clipPath id="underToHood_svg__i"><rect width="48" height="28" x="222" y="209" fill="#fff" rx="3"></rect></clipPath><clipPath id="underToHood_svg__k"><path fill="#fff" d="M530 17h5v516a1 1 0 0 1-1 1h-4z"></path></clipPath><filter id="underToHood_svg__b" width="211.512" height="208.171" x="336.573" y="0.914" color-interpolation-filters="sRGB" filterUnits="userSpaceOnUse"><feFlood flood-opacity="0" result="BackgroundImageFix"></feFlood><feColorMatrix in="SourceAlpha" result="hardAlpha" values="0 0 0 0 0 0 0 0 0 0 0 0 0 0 0 0 0 0 127 0"></feColorMatrix><feOffset dx="-11.139" dy="-7.797"></feOffset><feGaussianBlur stdDeviation="13.644"></feGaussianBlur><feColorMatrix values="0 0 0 0 0.141176 0 0 0 0 0.145098 0 0 0 0 0.152941 0 0 0 0.5 0"></feColorMatrix><feBlend in2="BackgroundImageFix" result="effect1_dropShadow_7594_17814"></feBlend><feColorMatrix in="SourceAlpha" result="hardAlpha" values="0 0 0 0 0 0 0 0 0 0 0 0 0 0 0 0 0 0 127 0"></feColorMatrix><feOffset dx="7.797" dy="7.797"></feOffset><feGaussianBlur stdDeviation="13.644"></feGaussianBlur><feColorMatrix values="0 0 0 0 0.0767361 0 0 0 0 0.0767361 0 0 0 0 0.0833333 0 0 0 1 0"></feColorMatrix><feBlend in2="effect1_dropShadow_7594_17814" result="effect2_dropShadow_7594_17814"></feBlend><feBlend in="SourceGraphic" in2="effect2_dropShadow_7594_17814" result="shape"></feBlend><feColorMatrix in="SourceAlpha" result="hardAlpha" values="0 0 0 0 0 0 0 0 0 0 0 0 0 0 0 0 0 0 127 0"></feColorMatrix><feOffset dy="-0.418"></feOffset><feGaussianBlur stdDeviation="0.209"></feGaussianBlur><feComposite in2="hardAlpha" k2="-1" k3="1" operator="arithmetic"></feComposite><feColorMatrix values="0 0 0 0 1 0 0 0 0 1 0 0 0 0 1 0 0 0 0.08 0"></feColorMatrix><feBlend in2="shape" result="effect3_innerShadow_7594_17814"></feBlend></filter><filter id="underToHood_svg__c" width="266" height="379" x="311" y="26" color-interpolation-filters="sRGB" filterUnits="userSpaceOnUse"><feFlood flood-opacity="0" result="BackgroundImageFix"></feFlood><feColorMatrix in="SourceAlpha" result="hardAlpha" values="0 0 0 0 0 0 0 0 0 0 0 0 0 0 0 0 0 0 127 0"></feColorMatrix><feOffset dy="10"></feOffset><feGaussianBlur stdDeviation="11.5"></feGaussianBlur><feColorMatrix values="0 0 0 0 0 0 0 0 0 0 0 0 0 0 0 0 0 0 0.15 0"></feColorMatrix><feBlend in2="BackgroundImageFix" result="effect1_dropShadow_7594_17814"></feBlend><feColorMatrix in="SourceAlpha" result="hardAlpha" values="0 0 0 0 0 0 0 0 0 0 0 0 0 0 0 0 0 0 127 0"></feColorMatrix><feOffset dy="42"></feOffset><feGaussianBlur stdDeviation="21"></feGaussianBlur><feColorMatrix values="0 0 0 0 0 0 0 0 0 0 0 0 0 0 0 0 0 0 0.13 0"></feColorMatrix><feBlend in2="effect1_dropShadow_7594_17814" result="effect2_dropShadow_7594_17814"></feBlend><feColorMatrix in="SourceAlpha" result="hardAlpha" values="0 0 0 0 0 0 0 0 0 0 0 0 0 0 0 0 0 0 127 0"></feColorMatrix><feOffset dy="94"></feOffset><feGaussianBlur stdDeviation="28"></feGaussianBlur><feColorMatrix values="0 0 0 0 0 0 0 0 0 0 0 0 0 0 0 0 0 0 0.08 0"></feColorMatrix><feBlend in2="effect2_dropShadow_7594_17814" result="effect3_dropShadow_7594_17814"></feBlend><feColorMatrix in="SourceAlpha" result="hardAlpha" values="0 0 0 0 0 0 0 0 0 0 0 0 0 0 0 0 0 0 127 0"></feColorMatrix><feOffset dy="167"></feOffset><feGaussianBlur stdDeviation="33.5"></feGaussianBlur><feColorMatrix values="0 0 0 0 0 0 0 0 0 0 0 0 0 0 0 0 0 0 0.02 0"></feColorMatrix><feBlend in2="effect3_dropShadow_7594_17814" result="effect4_dropShadow_7594_17814"></feBlend><feBlend in="SourceGraphic" in2="effect4_dropShadow_7594_17814" result="shape"></feBlend></filter></defs></svg>