<svg xmlns="http://www.w3.org/2000/svg" width="22" height="24" fill="none" aria-hidden="true"><path fill="#28282C" fill-rule="evenodd" d="M11.582.245A.82.82 0 0 0 11 0a.82.82 0 0 0-.582.245C8.023 2.645 4.833 3.96 1.53 3.912a.8.8 0 0 0-.502.166.9.9 0 0 0-.313.447A16 16 0 0 0 0 9.27c0 7.075 4.585 13.017 10.789 14.702a.8.8 0 0 0 .422 0C17.415 22.287 22 16.345 22 9.27c0-1.655-.252-3.25-.716-4.745a.9.9 0 0 0-.312-.448.8.8 0 0 0-.503-.166l-.161.001c-3.38 0-6.45-1.393-8.726-3.667" clip-rule="evenodd"></path><path fill="#8A8F98" fill-rule="evenodd" d="M13.25 11.25a1.5 1.5 0 0 1 1.5 1.5v3a1.5 1.5 0 0 1-1.5 1.5h-4.5a1.5 1.5 0 0 1-1.5-1.5v-3a1.5 1.5 0 0 1 1.5-1.5zM11 12.75A1.125 1.125 0 1 0 11 15a1.125 1.125 0 0 0 0-2.25m0-6A2.25 2.25 0 0 1 13.25 9v1.5h-1.125V9a1.125 1.125 0 0 0-2.25 0v1.5H8.75V9A2.25 2.25 0 0 1 11 6.75" clip-rule="evenodd"></path></svg>