<svg xmlns="http://www.w3.org/2000/svg" width="26" height="26" fill="none" aria-hidden="true"><circle cx="13" cy="13" r="12" stroke="#28282C" stroke-dasharray="2 6" stroke-linecap="round" stroke-width="2"></circle><path fill="#8A8F98" fill-rule="evenodd" d="M13 6.875a6.125 6.125 0 1 1 0 12.25 6.125 6.125 0 0 1 0-12.25m-.515 10.91a.17.17 0 0 0 .187-.17v-1.9a.17.17 0 0 0-.187-.172 4.4 4.4 0 0 0-1.294.339.167.167 0 0 0-.09.209q.181.511.405.934.184.349.38.615c.024.034.06.057.1.066q.245.052.5.08Zm1.03-2.242a.17.17 0 0 0-.187.171v1.9a.17.17 0 0 0 .187.171 5 5 0 0 0 .499-.08.17.17 0 0 0 .1-.065q.196-.266.38-.615.224-.422.405-.934a.167.167 0 0 0-.09-.21 4.4 4.4 0 0 0-1.294-.338m-.023-.661a.18.18 0 0 1-.164-.178v-1.2c0-.098.079-.176.175-.176h1.717c.099 0 .178.082.173.18a9.7 9.7 0 0 1-.214 1.593.178.178 0 0 1-.242.123 5.1 5.1 0 0 0-1.444-.342Zm-.995-2.21a.175.175 0 0 0 .175-.175v-1.201a.18.18 0 0 0-.165-.178 5.1 5.1 0 0 1-1.444-.342.178.178 0 0 0-.242.123 9.7 9.7 0 0 0-.214 1.592.173.173 0 0 0 .173.18h1.717Zm.995-1.554a.18.18 0 0 0-.164.178v1.2c0 .098.079.176.175.176h1.717a.173.173 0 0 0 .173-.18 9.7 9.7 0 0 0-.214-1.593.178.178 0 0 0-.242-.123 5.1 5.1 0 0 1-1.444.342Zm.023-.661a.17.17 0 0 1-.187-.171v-1.9a.17.17 0 0 1 .187-.171q.253.027.499.08c.04.008.076.031.1.065q.196.266.38.615c.148.28.285.594.405.934a.167.167 0 0 1-.09.21 4.4 4.4 0 0 1-1.294.338m-1.03 0a.17.17 0 0 0 .187-.171v-1.9a.17.17 0 0 0-.187-.171 5 5 0 0 0-.499.08.17.17 0 0 0-.1.065q-.196.266-.38.615c-.148.28-.285.594-.405.934a.167.167 0 0 0 .09.21c.378.166.818.286 1.294.338m.023 4.425a.18.18 0 0 0 .164-.178v-1.2a.175.175 0 0 0-.175-.176H10.78a.173.173 0 0 0-.173.18 9.7 9.7 0 0 0 .214 1.593c.023.107.14.164.242.123a5.1 5.1 0 0 1 1.444-.342Zm3.197 1.58c-.087-.083-.226-.043-.27.07a7 7 0 0 1-.369.816 4.8 4.8 0 0 0 .909-.565 2 2 0 0 0-.27-.321m.902-.276c-.072.081-.2.072-.271-.01a3 3 0 0 0-.51-.466.18.18 0 0 1-.071-.192 10.2 10.2 0 0 0 .296-2.02.177.177 0 0 1 .176-.17h1.387a.17.17 0 0 1 .171.187 4.8 4.8 0 0 1-1.178 2.67Zm-6.432-.476a.18.18 0 0 0 .07-.192 10.2 10.2 0 0 1-.296-2.02.177.177 0 0 0-.176-.17H8.386a.17.17 0 0 0-.171.187 4.8 4.8 0 0 0 1.178 2.67c.072.082.2.073.271-.01.146-.169.32-.325.51-.465Zm-.15 1.073q.42.331.909.565a7 7 0 0 1-.37-.817c-.043-.112-.182-.152-.269-.07q-.164.16-.27.322m.909-8.13a7 7 0 0 0-.37.816c-.043.112-.182.152-.269.07a2 2 0 0 1-.27-.322q.42-.331.909-.565Zm-.689 1.829a.18.18 0 0 0-.07-.192 3 3 0 0 1-.51-.465c-.072-.083-.2-.092-.272-.01a4.8 4.8 0 0 0-1.178 2.67.17.17 0 0 0 .17.187h1.388a.177.177 0 0 0 .176-.17c.034-.715.138-1.395.296-2.02m5.982 2.19a.177.177 0 0 1-.176-.17 10.2 10.2 0 0 0-.296-2.02.18.18 0 0 1 .07-.192 3 3 0 0 0 .51-.465c.072-.083.2-.092.272-.01a4.8 4.8 0 0 1 1.178 2.67.17.17 0 0 1-.17.187zm-.252-3.455q-.106.163-.27.321c-.087.083-.226.043-.27-.07a7 7 0 0 0-.369-.816q.489.234.909.565" clip-rule="evenodd"></path></svg>