<svg
  width="16"
  height="16"
  viewBox="0 0 16 16"
  fill="currentColor"
  aria-hidden="true"
  xmlns="http://www.w3.org/2000/svg"
>
  <path
    fill-rule="evenodd"
    clip-rule="evenodd"
    d="M7.194 1.19C6 .467 6.5 1.97 6.5 2.973S5.5 5.459 5 5.98 4 6.982 4 6.982c-.857.897-1 2.002-1 3.007v.027C3 12.768 5.239 15 8 15s5-2.232 5-4.984V6c0-.845-1.349-.041-2 .5l-1 .957V5.53a4.48 4.48 0 0 0-1.8-3.588zM8 13.998c-1.25 0-2.5-.438-2.5-2.187 0-1.368 1.02-2.714 1.862-3.41.278-.23.638-.012.638.349v1.749a.5.5 0 0 0 .7.46l1.1-.482c.33-.144.704.098.683.459-.072 1.263-.455 3.062-2.483 3.062"
  />
</svg>
